{"title":"Barbarossa.2009.720p.BRRip.x264.Feel-Free","uid":6073151,"size":2471821749,"categoryP":"video","categoryS":"hd___movies","magnet":"?xt=urn:btih:c60f5ec24e10f15d902939c40cf5e83c92c5fafb&amp;dn=Barbarossa.2009.720p.BRRip.x264.Feel-Free&amp;tr=udp%3A%2F%2Ftracker.openbittorrent.com%3A80&amp;tr=udp%3A%2F%2Fopen.demonii.com%3A1337&amp;tr=udp%3A%2F%2Ftracker.coppersurfer.tk%3A6969&amp;tr=udp%3A%2F%2Fexodus.desync.com%3A6969","seeders":0,"leechers":1,"uploader":"hiest","files":11,"time":1293668306,"description":"Genre:Drama | History\nLanguage:English\nIMDb:http://www.imdb.com/title/tt1242516/\nSource:BluRay.x264.-iNVANDRAREN\nSubtitles:Romana\n\n\nFormat : Matroska\nFile size : 2.30 GiB\nDuration : 2h 3mn\nOverall bit rate : 2 656 Kbps\n\n\nVideo\nFormat settings, CABAC : Yes\nFormat settings, ReFrames : 4 frames\nCodec ID : V_MPEG4/ISO/AVC\nDuration : 2h 3mn\nBit rate : 2 300 Kbps\nWidth : 1 280 pixels\nHeight : 544 pixels\nDisplay aspect ratio : 2.35:1\nFrame rate mode : Variable\nFrame rate : 25.000 fps\nColor space : YUV\nChroma subsampling : 4:2:0\nBit depth : 8 bits\nScan type : Progressive\nBits/(Pixel*Frame) : 0.132\nStream size : 1.92 GiB (84%)\nWriting library : x264 \n\nAudio\nID : 2\nFormat : AC-3\nFormat/Info : Audio Coding 3\nMode extension : CM (complete main)\nCodec ID : A_AC3\nDuration : 2h 3mn\nBit rate mode : Constant\nBit rate : 384 Kbps\nChannel(s) : 6 channels\nChannel positions : Front: L C R, Side: L R, LFE\nSampling rate : 48.0 KHz\nBit depth : 16 bits\nVideo delay : -1mn 5s\nStream size : 340 MiB (14%)\nLanguage : English\n\n\nPlot:\nIn Italy, year 1100, the Northern lands are ruled by the German Emperor Barbarossa.\nHis dream is to also conquer the lands in the center and the South to revive the empire that once belonged\nto Charles the Great. But in the North, a young man from Milan named Alberto Da Giussano has formed an\narmy of 900 men all from different cities known as the company of death. His dream is to defeat the Emperor\nand give freedom back to the Northern lands.","torrent":{"xt":"urn:btih:c60f5ec24e10f15d902939c40cf5e83c92c5fafb","amp;dn":"Barbarossa.2009.720p.BRRip.x264.Feel-Free","amp;tr":["udp%3A%2F%2Ftracker.openbittorrent.com%3A80","udp%3A%2F%2Fopen.demonii.com%3A1337","udp%3A%2F%2Ftracker.coppersurfer.tk%3A6969","udp%3A%2F%2Fexodus.desync.com%3A6969"],"infoHash":"c60f5ec24e10f15d902939c40cf5e83c92c5fafb","infoHashBuffer":{"type":"Buffer","data":[198,15,94,194,78,16,241,93,144,41,57,196,12,245,232,60,146,197,250,251]},"announce":[],"urlList":[]}}